HIERARCHY
ROOT Hips
{
  OFFSET 0.0 0.0 0.0
  CHANNELS 6 Xposition Yposition Zposition Zrotation Xrotation Yrotation
  JOINT Spine
  {
    OFFSET 0.0 10.0 0.0
    CHANNELS 3 Zrotation Xrotation Yrotation
    JOINT Chest
    {
      OFFSET 0.0 10.0 0.0
      CHANNELS 3 Zrotation Xrotation Yrotation
      JOINT Neck
      {
        OFFSET 0.0 5.0 0.0
        CHANNELS 3 Zrotation Xrotation Yrotation
        JOINT Head
        {
          OFFSET 0.0 5.0 0.0
          CHANNELS 3 Zrotation Xrotation Yrotation
          End Site
          {
            OFFSET 0.0 2.0 0.0
          }
        }
      }
      JOINT LeftShoulder
      {
        OFFSET -5.0 5.0 0.0
        CHANNELS 3 Zrotation Xrotation Yrotation
        JOINT LeftArm
        {
          OFFSET -10.0 0.0 0.0
          CHANNELS 3 Zrotation Xrotation Yrotation
          JOINT LeftForeArm
          {
            OFFSET -10.0 0.0 0.0
            CHANNELS 3 Zrotation Xrotation Yrotation
            End Site
            {
              OFFSET -5.0 0.0 0.0
            }
          }
        }
      }
      JOINT RightShoulder
      {
        OFFSET 5.0 5.0 0.0
        CHANNELS 3 Zrotation Xrotation Yrotation
        JOINT RightArm
        {
          OFFSET 10.0 0.0 0.0
          CHANNELS 3 Zrotation Xrotation Yrotation
          JOINT RightForeArm
          {
            OFFSET 10.0 0.0 0.0
            CHANNELS 3 Zrotation Xrotation Yrotation
            End Site
            {
              OFFSET 5.0 0.0 0.0
            }
          }
        }
      }
    }
  }
  JOINT LeftUpLeg
  {
    OFFSET -3.0 -10.0 0.0
    CHANNELS 3 Zrotation Xrotation Yrotation
    JOINT LeftLeg
    {
      OFFSET 0.0 -15.0 0.0
      CHANNELS 3 Zrotation Xrotation Yrotation
      JOINT LeftFoot
      {
        OFFSET 0.0 -10.0 5.0
        CHANNELS 3 Zrotation Xrotation Yrotation
        End Site
        {
          OFFSET 0.0 -2.0 5.0
        }
      }
    }
  }
  JOINT RightUpLeg
  {
    OFFSET 3.0 -10.0 0.0
    CHANNELS 3 Zrotation Xrotation Yrotation
    JOINT RightLeg
    {
      OFFSET 0.0 -15.0 0.0
      CHANNELS 3 Zrotation Xrotation Yrotation
      JOINT RightFoot
      {
        OFFSET 0.0 -10.0 5.0
        CHANNELS 3 Zrotation Xrotation Yrotation
        End Site
        {
          OFFSET 0.0 -2.0 5.0
        }
      }
    }
  }
}
MOTION
Frames: 30
Frame Time: 0.0333333
0.00 0.00 0.00 0.00 0.00 0.00 0.00 5.00 0.00 0.00 5.00 0.00 0.00 0.00 0.00 0.00 5.00 0.00 0.00 30.00 0.00 0.00 0.00 30.00 15.00 0.00 0.00 0.00 -30.00 0.00 0.00 0.00 -30.00 -15.00 0.00 0.00 30.00 0.00 0.00 15.00 0.00 0.00 0.00 15.00 0.00 -30.00 0.00 0.00 -15.00 0.00 0.00 0.00 -15.00 0.00
0.00 0.00 2.50 0.00 0.00 0.00 0.00 5.00 0.00 0.00 5.00 0.00 0.00 0.00 0.00 0.00 5.00 0.00 0.00 30.00 0.00 0.00 0.00 30.00 15.00 0.00 0.00 0.00 -30.00 0.00 0.00 0.00 -30.00 -15.00 0.00 0.00 30.00 0.00 0.00 15.00 0.00 0.00 0.00 15.00 0.00 -30.00 0.00 0.00 -15.00 0.00 0.00 0.00 -15.00 0.00
0.00 0.00 5.00 0.00 0.00 0.00 0.00 5.00 0.00 0.00 5.00 0.00 0.00 0.00 0.00 0.00 5.00 0.00 0.00 30.00 0.00 0.00 0.00 30.00 15.00 0.00 0.00 0.00 -30.00 0.00 0.00 0.00 -30.00 -15.00 0.00 0.00 30.00 0.00 0.00 15.00 0.00 0.00 0.00 15.00 0.00 -30.00 0.00 0.00 -15.00 0.00 0.00 0.00 -15.00 0.00
0.00 0.00 7.50 0.00 0.00 0.00 0.00 5.00 0.00 0.00 5.00 0.00 0.00 0.00 0.00 0.00 5.00 0.00 0.00 30.00 0.00 0.00 0.00 30.00 15.00 0.00 0.00 0.00 -30.00 0.00 0.00 0.00 -30.00 -15.00 0.00 0.00 30.00 0.00 0.00 15.00 0.00 0.00 0.00 15.00 0.00 -30.00 0.00 0.00 -15.00 0.00 0.00 0.00 -15.00 0.00
0.00 0.00 10.00 0.00 0.00 0.00 0.00 5.00 0.00 0.00 5.00 0.00 0.00 0.00 0.00 0.00 5.00 0.00 0.00 30.00 0.00 0.00 0.00 30.00 15.00 0.00 0.00 0.00 -30.00 0.00 0.00 0.00 -30.00 -15.00 0.00 0.00 30.00 0.00 0.00 15.00 0.00 0.00 0.00 15.00 0.00 -30.00 0.00 0.00 -15.00 0.00 0.00 0.00 -15.00 0.00
0.00 0.00 12.50 0.00 0.00 0.00 0.00 5.00 0.00 0.00 5.00 0.00 0.00 0.00 0.00 0.00 5.00 0.00 0.00 30.00 0.00 0.00 0.00 30.00 15.00 0.00 0.00 0.00 -30.00 0.00 0.00 0.00 -30.00 -15.00 0.00 0.00 30.00 0.00 0.00 15.00 0.00 0.00 0.00 15.00 0.00 -30.00 0.00 0.00 -15.00 0.00 0.00 0.00 -15.00 0.00
0.00 0.00 15.00 0.00 0.00 0.00 0.00 5.00 0.00 0.00 5.00 0.00 0.00 0.00 0.00 0.00 5.00 0.00 0.00 30.00 0.00 0.00 0.00 30.00 15.00 0.00 0.00 0.00 -30.00 0.00 0.00 0.00 -30.00 -15.00 0.00 0.00 30.00 0.00 0.00 15.00 0.00 0.00 0.00 15.00 0.00 -30.00 0.00 0.00 -15.00 0.00 0.00 0.00 -15.00 0.00
0.00 0.00 17.50 0.00 0.00 0.00 0.00 5.00 0.00 0.00 5.00 0.00 0.00 0.00 0.00 0.00 5.00 0.00 0.00 30.00 0.00 0.00 0.00 30.00 15.00 0.00 0.00 0.00 -30.00 0.00 0.00 0.00 -30.00 -15.00 0.00 0.00 30.00 0.00 0.00 15.00 0.00 0.00 0.00 15.00 0.00 -30.00 0.00 0.00 -15.00 0.00 0.00 0.00 -15.00 0.00
0.00 0.00 20.00 0.00 0.00 0.00 0.00 5.00 0.00 0.00 5.00 0.00 0.00 0.00 0.00 0.00 5.00 0.00 0.00 30.00 0.00 0.00 0.00 30.00 15.00 0.00 0.00 0.00 -30.00 0.00 0.00 0.00 -30.00 -15.00 0.00 0.00 30.00 0.00 0.00 15.00 0.00 0.00 0.00 15.00 0.00 -30.00 0.00 0.00 -15.00 0.00 0.00 0.00 -15.00 0.00
0.00 0.00 22.50 0.00 0.00 0.00 0.00 5.00 0.00 0.00 5.00 0.00 0.00 0.00 0.00 0.00 5.00 0.00 0.00 30.00 0.00 0.00 0.00 30.00 15.00 0.00 0.00 0.00 -30.00 0.00 0.00 0.00 -30.00 -15.00 0.00 0.00 30.00 0.00 0.00 15.00 0.00 0.00 0.00 15.00 0.00 -30.00 0.00 0.00 -15.00 0.00 0.00 0.00 -15.00 0.00
0.00 0.00 25.00 0.00 0.00 0.00 0.00 5.00 0.00 0.00 5.00 0.00 0.00 0.00 0.00 0.00 5.00 0.00 0.00 -30.00 0.00 0.00 0.00 -30.00 -15.00 0.00 0.00 0.00 30.00 0.00 0.00 0.00 30.00 15.00 0.00 0.00 -30.00 0.00 0.00 -15.00 0.00 0.00 0.00 -15.00 0.00 30.00 0.00 0.00 15.00 0.00 0.00 0.00 15.00 0.00
0.00 0.00 27.50 0.00 0.00 0.00 0.00 5.00 0.00 0.00 5.00 0.00 0.00 0.00 0.00 0.00 5.00 0.00 0.00 -30.00 0.00 0.00 0.00 -30.00 -15.00 0.00 0.00 0.00 30.00 0.00 0.00 0.00 30.00 15.00 0.00 0.00 -30.00 0.00 0.00 -15.00 0.00 0.00 0.00 -15.00 0.00 30.00 0.00 0.00 15.00 0.00 0.00 0.00 15.00 0.00
0.00 0.00 30.00 0.00 0.00 0.00 0.00 5.00 0.00 0.00 5.00 0.00 0.00 0.00 0.00 0.00 5.00 0.00 0.00 -30.00 0.00 0.00 0.00 -30.00 -15.00 0.00 0.00 0.00 30.00 0.00 0.00 0.00 30.00 15.00 0.00 0.00 -30.00 0.00 0.00 -15.00 0.00 0.00 0.00 -15.00 0.00 30.00 0.00 0.00 15.00 0.00 0.00 0.00 15.00 0.00
0.00 0.00 32.50 0.00 0.00 0.00 0.00 5.00 0.00 0.00 5.00 0.00 0.00 0.00 0.00 0.00 5.00 0.00 0.00 -30.00 0.00 0.00 0.00 -30.00 -15.00 0.00 0.00 0.00 30.00 0.00 0.00 0.00 30.00 15.00 0.00 0.00 -30.00 0.00 0.00 -15.00 0.00 0.00 0.00 -15.00 0.00 30.00 0.00 0.00 15.00 0.00 0.00 0.00 15.00 0.00
0.00 0.00 35.00 0.00 0.00 0.00 0.00 5.00 0.00 0.00 5.00 0.00 0.00 0.00 0.00 0.00 5.00 0.00 0.00 -30.00 0.00 0.00 0.00 -30.00 -15.00 0.00 0.00 0.00 30.00 0.00 0.00 0.00 30.00 15.00 0.00 0.00 -30.00 0.00 0.00 -15.00 0.00 0.00 0.00 -15.00 0.00 30.00 0.00 0.00 15.00 0.00 0.00 0.00 15.00 0.00
0.00 0.00 37.50 0.00 0.00 0.00 0.00 5.00 0.00 0.00 5.00 0.00 0.00 0.00 0.00 0.00 5.00 0.00 0.00 -30.00 0.00 0.00 0.00 -30.00 -15.00 0.00 0.00 0.00 30.00 0.00 0.00 0.00 30.00 15.00 0.00 0.00 -30.00 0.00 0.00 -15.00 0.00 0.00 0.00 -15.00 0.00 30.00 0.00 0.00 15.00 0.00 0.00 0.00 15.00 0.00
0.00 0.00 40.00 0.00 0.00 0.00 0.00 5.00 0.00 0.00 5.00 0.00 0.00 0.00 0.00 0.00 5.00 0.00 0.00 -30.00 0.00 0.00 0.00 -30.00 -15.00 0.00 0.00 0.00 30.00 0.00 0.00 0.00 30.00 15.00 0.00 0.00 -30.00 0.00 0.00 -15.00 0.00 0.00 0.00 -15.00 0.00 30.00 0.00 0.00 15.00 0.00 0.00 0.00 15.00 0.00
0.00 0.00 42.50 0.00 0.00 0.00 0.00 5.00 0.00 0.00 5.00 0.00 0.00 0.00 0.00 0.00 5.00 0.00 0.00 -30.00 0.00 0.00 0.00 -30.00 -15.00 0.00 0.00 0.00 30.00 0.00 0.00 0.00 30.00 15.00 0.00 0.00 -30.00 0.00 0.00 -15.00 0.00 0.00 0.00 -15.00 0.00 30.00 0.00 0.00 15.00 0.00 0.00 0.00 15.00 0.00
0.00 0.00 45.00 0.00 0.00 0.00 0.00 5.00 0.00 0.00 5.00 0.00 0.00 0.00 0.00 0.00 5.00 0.00 0.00 -30.00 0.00 0.00 0.00 -30.00 -15.00 0.00 0.00 0.00 30.00 0.00 0.00 0.00 30.00 15.00 0.00 0.00 -30.00 0.00 0.00 -15.00 0.00 0.00 0.00 -15.00 0.00 30.00 0.00 0.00 15.00 0.00 0.00 0.00 15.00 0.00
0.00 0.00 47.50 0.00 0.00 0.00 0.00 5.00 0.00 0.00 5.00 0.00 0.00 0.00 0.00 0.00 5.00 0.00 0.00 -30.00 0.00 0.00 0.00 -30.00 -15.00 0.00 0.00 0.00 30.00 0.00 0.00 0.00 30.00 15.00 0.00 0.00 -30.00 0.00 0.00 -15.00 0.00 0.00 0.00 -15.00 0.00 30.00 0.00 0.00 15.00 0.00 0.00 0.00 15.00 0.00
0.00 0.00 50.00 0.00 0.00 0.00 0.00 5.00 0.00 0.00 5.00 0.00 0.00 0.00 0.00 0.00 5.00 0.00 0.00 30.00 0.00 0.00 0.00 30.00 15.00 0.00 0.00 0.00 -30.00 0.00 0.00 0.00 -30.00 -15.00 0.00 0.00 30.00 0.00 0.00 15.00 0.00 0.00 0.00 15.00 0.00 -30.00 0.00 0.00 -15.00 0.00 0.00 0.00 -15.00 0.00
0.00 0.00 52.50 0.00 0.00 0.00 0.00 5.00 0.00 0.00 5.00 0.00 0.00 0.00 0.00 0.00 5.00 0.00 0.00 30.00 0.00 0.00 0.00 30.00 15.00 0.00 0.00 0.00 -30.00 0.00 0.00 0.00 -30.00 -15.00 0.00 0.00 30.00 0.00 0.00 15.00 0.00 0.00 0.00 15.00 0.00 -30.00 0.00 0.00 -15.00 0.00 0.00 0.00 -15.00 0.00
0.00 0.00 55.00 0.00 0.00 0.00 0.00 5.00 0.00 0.00 5.00 0.00 0.00 0.00 0.00 0.00 5.00 0.00 0.00 30.00 0.00 0.00 0.00 30.00 15.00 0.00 0.00 0.00 -30.00 0.00 0.00 0.00 -30.00 -15.00 0.00 0.00 30.00 0.00 0.00 15.00 0.00 0.00 0.00 15.00 0.00 -30.00 0.00 0.00 -15.00 0.00 0.00 0.00 -15.00 0.00
0.00 0.00 57.50 0.00 0.00 0.00 0.00 5.00 0.00 0.00 5.00 0.00 0.00 0.00 0.00 0.00 5.00 0.00 0.00 30.00 0.00 0.00 0.00 30.00 15.00 0.00 0.00 0.00 -30.00 0.00 0.00 0.00 -30.00 -15.00 0.00 0.00 30.00 0.00 0.00 15.00 0.00 0.00 0.00 15.00 0.00 -30.00 0.00 0.00 -15.00 0.00 0.00 0.00 -15.00 0.00
0.00 0.00 60.00 0.00 0.00 0.00 0.00 5.00 0.00 0.00 5.00 0.00 0.00 0.00 0.00 0.00 5.00 0.00 0.00 30.00 0.00 0.00 0.00 30.00 15.00 0.00 0.00 0.00 -30.00 0.00 0.00 0.00 -30.00 -15.00 0.00 0.00 30.00 0.00 0.00 15.00 0.00 0.00 0.00 15.00 0.00 -30.00 0.00 0.00 -15.00 0.00 0.00 0.00 -15.00 0.00
0.00 0.00 62.50 0.00 0.00 0.00 0.00 5.00 0.00 0.00 5.00 0.00 0.00 0.00 0.00 0.00 5.00 0.00 0.00 30.00 0.00 0.00 0.00 30.00 15.00 0.00 0.00 0.00 -30.00 0.00 0.00 0.00 -30.00 -15.00 0.00 0.00 30.00 0.00 0.00 15.00 0.00 0.00 0.00 15.00 0.00 -30.00 0.00 0.00 -15.00 0.00 0.00 0.00 -15.00 0.00
0.00 0.00 65.00 0.00 0.00 0.00 0.00 5.00 0.00 0.00 5.00 0.00 0.00 0.00 0.00 0.00 5.00 0.00 0.00 30.00 0.00 0.00 0.00 30.00 15.00 0.00 0.00 0.00 -30.00 0.00 0.00 0.00 -30.00 -15.00 0.00 0.00 30.00 0.00 0.00 15.00 0.00 0.00 0.00 15.00 0.00 -30.00 0.00 0.00 -15.00 0.00 0.00 0.00 -15.00 0.00
0.00 0.00 67.50 0.00 0.00 0.00 0.00 5.00 0.00 0.00 5.00 0.00 0.00 0.00 0.00 0.00 5.00 0.00 0.00 30.00 0.00 0.00 0.00 30.00 15.00 0.00 0.00 0.00 -30.00 0.00 0.00 0.00 -30.00 -15.00 0.00 0.00 30.00 0.00 0.00 15.00 0.00 0.00 0.00 15.00 0.00 -30.00 0.00 0.00 -15.00 0.00 0.00 0.00 -15.00 0.00
0.00 0.00 70.00 0.00 0.00 0.00 0.00 5.00 0.00 0.00 5.00 0.00 0.00 0.00 0.00 0.00 5.00 0.00 0.00 30.00 0.00 0.00 0.00 30.00 15.00 0.00 0.00 0.00 -30.00 0.00 0.00 0.00 -30.00 -15.00 0.00 0.00 30.00 0.00 0.00 15.00 0.00 0.00 0.00 15.00 0.00 -30.00 0.00 0.00 -15.00 0.00 0.00 0.00 -15.00 0.00
0.00 0.00 72.50 0.00 0.00 0.00 0.00 5.00 0.00 0.00 5.00 0.00 0.00 0.00 0.00 0.00 5.00 0.00 0.00 30.00 0.00 0.00 0.00 30.00 15.00 0.00 0.00 0.00 -30.00 0.00 0.00 0.00 -30.00 -15.00 0.00 0.00 30.00 0.00 0.00 15.00 0.00 0.00 0.00 15.00 0.00 -30.00 0.00 0.00 -15.00 0.00 0.00 0.00 -15.00 0.00
